<svg xmlns="http://www.w3.org/2000/svg" id="Ebene_1" x="0" y="0" version="1.1" viewBox="0 0 195 71.1" xml:space="preserve"><style>.st0{fill:gold}</style><path id="b1" d="M9.3 40.5c6.1-2.1 12.2-3.6 16.2-2.1s7.9 2.3 11.9 3.8c3 1.1 9.9 1.3 14.6-2.2 2.9-2.1 7.1-4.9 11.7 0-.2-1.5-1.5-2.8-1.8-3.8-.4-1.4-.3-2.2-1.8-3.8-2.2-2.3-5.2-1.6-6.9-1.4-3.2.4-3.5-1.9-2.9-4.4s11.5-22.2 9-24.2C55.9 0 51.6-.3 47.9 1.3c-5.4 2.5-16.6 15.3-19.5 18.5-3.6 4-.1 10.6-.1 10.6s2.9 4.3-5.4 2.6c-5.2-1.2-22.9.7-22.9.7l9.3 6.8z" class="st0"/><path id="b2" d="M116.3 30.8c1.8.1 5.2-.7 7 .1 2 1 2.2 1.7 3.2 2.8.7.9 2.4 1.6 3.2 2.8-4.8-2.1-9.6 1.3-10.2 1.8-1.3 1-2.3 2.4-2.8 4-1.5 4-7.7 29.4-9.3 28.4-2.5-1.5-7.3-4.9-8.6-8.3-2.2-5.6-2.8-18.3-8.9-22.3C84 36.3 78 35 72.5 37.2s-3.9-1.7-3.9-1.7 20.8-4.1 30.2-5.5 14.5.6 17.5.8z" class="st0"/><path id="b3" d="M186.4 35.2c1.2-.3 3.2-.7 8 1.4-.8-1.2-2.4-2-3.2-2.8-.9-1.1-1.1-1.9-3.2-2.8-1.7-.8-5.1.1-7-.1-3-.2-8.2-2.3-17.6-.8s-30.1 5.5-30.1 5.5-1.7 3.9 3.9 1.7 15.7-2.2 20.6-.2c2.2.8 4.1 2.2 5.6 4 2.2 2.4 4.6 13.5 7.1 15 1.2.7 6.1-7 8.7-11.5 2.5 1.7 5.4 3 8.4 3.7.5.1-2-8.8-3.1-12.3.6-.4 1.2-.6 1.9-.8z" class="st0"/></svg>